# xmcd CD database file
#
# Track frame offsets:
#	150
#	19350
#	34500
#	50550
#	66180
#	79425
#	93825
#	106380
#	125850
#	139455
#
# Disc length: 2107 seconds
#
# Revision: 3
# Processed by: cddbd v1.5.1PL2 Copyright (c) Steve Scherf et al.
# Submitted via: CDex 1.51
#
DISCID=9108390a
DTITLE=Juice Newton - Juice
DYEAR=1981
DGENRE=Country
TTITLE0=Angel Of The Morning
TTITLE1=Shot Full Of Love
TTITLE2=Ride 'Em Cowboy
TTITLE3=Queen Of Hearts
TTITLE4=River Of Love
TTITLE5=All I Have To Do Is Dream
TTITLE6=Headin' For A Heartache
TTITLE7=Country Comfort
TTITLE8=Texas Heartache
TTITLE9=The Sweetest Thing (I've Ever Known)
EXTD=YEAR: 1981
EXTT0=
EXTT1=
EXTT2=
EXTT3=
EXTT4=
EXTT5=
EXTT6=
EXTT7=
EXTT8=
EXTT9=
PLAYORDER=
